<?xml version="1.0" encoding="UTF-8"?>
<svg id="Layer_1" data-name="Layer 1" xmlns="http://www.w3.org/2000/svg" xmlns:xlink="http://www.w3.org/1999/xlink" viewBox="0 0 382.452 51.927">
  <defs>
    <style>
      .cls-1, .cls-2 {
        fill: none;
      }

      .cls-3 {
        clip-path: url(#clippath);
      }

      .cls-4 {
        fill: #fff;
      }

      .cls-5, .cls-6 {
        fill: #84c5c5;
      }

      .cls-7 {
        fill: #b1c5e6;
      }

      .cls-8 {
        fill: #dbe084;
      }

      .cls-9 {
        fill: #86a8c4;
      }

      .cls-10, .cls-11 {
        fill: #469c7d;
      }

      .cls-12 {
        clip-path: url(#clippath-1);
      }

      .cls-13 {
        clip-path: url(#clippath-4);
      }

      .cls-14 {
        clip-path: url(#clippath-3);
      }

      .cls-15 {
        clip-path: url(#clippath-2);
      }

      .cls-16 {
        clip-path: url(#clippath-7);
      }

      .cls-17 {
        clip-path: url(#clippath-8);
      }

      .cls-18 {
        clip-path: url(#clippath-6);
      }

      .cls-19 {
        clip-path: url(#clippath-5);
      }

      .cls-20 {
        clip-path: url(#clippath-9);
      }

      .cls-21 {
        clip-path: url(#clippath-14);
      }

      .cls-22 {
        clip-path: url(#clippath-13);
      }

      .cls-23 {
        clip-path: url(#clippath-12);
      }

      .cls-24 {
        clip-path: url(#clippath-10);
      }

      .cls-25 {
        clip-path: url(#clippath-15);
      }

      .cls-26 {
        clip-path: url(#clippath-17);
      }

      .cls-27 {
        clip-path: url(#clippath-16);
      }

      .cls-28 {
        clip-path: url(#clippath-11);
      }

      .cls-29 {
        clip-path: url(#clippath-18);
      }

      .cls-30 {
        fill: #009f7c;
      }

      .cls-30, .cls-31, .cls-32, .cls-33, .cls-6, .cls-11, .cls-34, .cls-35, .cls-36, .cls-2 {
        stroke: #fff;
        stroke-miterlimit: 10;
      }

      .cls-31 {
        fill: #e3bc37;
      }

      .cls-32 {
        fill: #dec648;
      }

      .cls-33 {
        fill: #dbdb83;
      }

      .cls-34 {
        fill: #4480be;
      }

      .cls-35 {
        fill: #0ca47f;
      }

      .cls-36 {
        fill: #427ec1;
      }
    </style>
    <clipPath id="clippath">
      <rect class="cls-1" x="73.253" y="18.688" width="309.199" height="27.282"/>
    </clipPath>
    <clipPath id="clippath-1">
      <circle class="cls-2" cx="7.775" cy="7.775" r="7.275"/>
    </clipPath>
    <clipPath id="clippath-2">
      <circle class="cls-2" cx="7.775" cy="25.963" r="7.275"/>
    </clipPath>
    <clipPath id="clippath-3">
      <circle class="cls-1" cx="24.145" cy="25.963" r="7.275"/>
    </clipPath>
    <clipPath id="clippath-4">
      <circle class="cls-1" cx="42.333" cy="25.963" r="7.275"/>
    </clipPath>
    <clipPath id="clippath-5">
      <circle class="cls-1" cx="60.521" cy="25.963" r="7.275"/>
    </clipPath>
    <clipPath id="clippath-6">
      <circle class="cls-2" cx="76.89" cy="25.963" r="7.275"/>
    </clipPath>
    <clipPath id="clippath-7">
      <circle class="cls-2" cx="93.26" cy="25.963" r="7.275"/>
    </clipPath>
    <clipPath id="clippath-8">
      <circle class="cls-2" cx="7.775" cy="44.152" r="7.275"/>
    </clipPath>
    <clipPath id="clippath-9">
      <circle class="cls-1" cx="24.145" cy="44.152" r="7.275"/>
    </clipPath>
    <clipPath id="clippath-10">
      <circle class="cls-1" cx="42.333" cy="44.152" r="7.275"/>
    </clipPath>
    <clipPath id="clippath-11">
      <circle class="cls-1" cx="60.521" cy="44.152" r="7.275"/>
    </clipPath>
    <clipPath id="clippath-12">
      <circle class="cls-1" cx="76.89" cy="44.152" r="7.275"/>
    </clipPath>
    <clipPath id="clippath-13">
      <circle class="cls-1" cx="93.26" cy="44.152" r="7.275"/>
    </clipPath>
    <clipPath id="clippath-14">
      <circle class="cls-2" cx="24.145" cy="7.775" r="7.275"/>
    </clipPath>
    <clipPath id="clippath-15">
      <circle class="cls-2" cx="42.333" cy="7.775" r="7.275"/>
    </clipPath>
    <clipPath id="clippath-16">
      <circle class="cls-2" cx="60.521" cy="7.775" r="7.275"/>
    </clipPath>
    <clipPath id="clippath-17">
      <circle class="cls-2" cx="76.89" cy="7.775" r="7.275"/>
    </clipPath>
    <clipPath id="clippath-18">
      <circle class="cls-2" cx="93.26" cy="7.775" r="7.275"/>
    </clipPath>
  </defs>
  <g class="cls-3">
    <g>
      <path class="cls-4" d="m114.504,27.962h5.027v-4.56h1.759v11.655h-1.759v-5.442h-5.027v5.442h-1.759v-11.655h1.759v4.56Z"/>
      <path class="cls-4" d="m130.207,31.782h-5.269c.045.604.241,1.085.589,1.442.347.352.792.528,1.336.528.423,0,.772-.101,1.049-.302.272-.202.581-.574.929-1.118l1.435.801c-.222.377-.456.701-.702.97-.247.27-.511.491-.793.664-.281.174-.586.301-.913.382-.327.08-.683.12-1.064.12-1.098,0-1.978-.352-2.643-1.057-.664-.709-.996-1.65-.996-2.823,0-1.162.322-2.104.967-2.823.648-.709,1.51-1.064,2.581-1.064,1.082,0,1.938.345,2.566,1.034.624.685.937,1.634.937,2.847l-.008.399Zm-1.743-1.389c-.237-.906-.809-1.359-1.714-1.359-.207,0-.4.032-.581.095-.182.063-.347.153-.495.271-.148.119-.275.261-.381.427s-.187.354-.241.566h3.412Z"/>
      <path class="cls-4" d="m131.818,27.706h1.706v.68c.594-.589,1.263-.884,2.008-.884.855,0,1.522.27,2,.808.413.458.619,1.206.619,2.242v4.507h-1.706v-4.106c0-.725-.101-1.226-.302-1.502-.196-.282-.554-.423-1.072-.423-.563,0-.964.186-1.2.559-.231.367-.347,1.009-.347,1.925v3.548h-1.706v-7.353Z"/>
      <path class="cls-4" d="m140.047,27.706h1.706v.68c.594-.589,1.263-.884,2.008-.884.855,0,1.522.27,2,.808.413.458.619,1.206.619,2.242v4.507h-1.706v-4.106c0-.725-.101-1.226-.302-1.502-.196-.282-.554-.423-1.072-.423-.563,0-.964.186-1.2.559-.231.367-.347,1.009-.347,1.925v3.548h-1.706v-7.353Z"/>
      <path class="cls-4" d="m154.973,31.782h-5.269c.045.604.241,1.085.589,1.442.347.352.792.528,1.336.528.423,0,.772-.101,1.049-.302.272-.202.581-.574.929-1.118l1.435.801c-.222.377-.456.701-.702.97-.247.27-.511.491-.793.664-.281.174-.586.301-.913.382-.327.08-.683.12-1.064.12-1.098,0-1.978-.352-2.643-1.057-.664-.709-.996-1.65-.996-2.823,0-1.162.322-2.104.967-2.823.648-.709,1.51-1.064,2.581-1.064,1.082,0,1.938.345,2.566,1.034.624.685.937,1.634.937,2.847l-.008.399Zm-1.743-1.389c-.237-.906-.809-1.359-1.714-1.359-.207,0-.4.032-.581.095-.182.063-.347.153-.495.271-.148.119-.275.261-.381.427s-.187.354-.241.566h3.412Z"/>
      <path class="cls-4" d="m160.856,28.959l-1.404.747c-.222-.452-.496-.679-.823-.679-.155,0-.289.052-.399.154-.111.104-.166.235-.166.396,0,.282.327.562.981.838.9.388,1.507.745,1.819,1.072.312.327.468.768.468,1.32,0,.71-.262,1.304-.785,1.782-.509.453-1.122.679-1.842.679-1.233,0-2.106-.601-2.62-1.804l1.45-.672c.201.353.354.576.46.672.206.191.453.287.74.287.573,0,.86-.262.86-.785,0-.302-.222-.584-.664-.846-.172-.086-.343-.169-.514-.249s-.345-.163-.521-.249c-.493-.241-.841-.483-1.042-.725-.257-.307-.385-.702-.385-1.186,0-.639.219-1.167.656-1.585.448-.418.991-.627,1.631-.627.94,0,1.641.486,2.099,1.457Z"/>
      <path class="cls-4" d="m166.865,28.959l-1.404.747c-.222-.452-.496-.679-.823-.679-.155,0-.289.052-.399.154-.111.104-.166.235-.166.396,0,.282.327.562.981.838.9.388,1.507.745,1.819,1.072.312.327.468.768.468,1.32,0,.71-.262,1.304-.785,1.782-.509.453-1.122.679-1.842.679-1.233,0-2.106-.601-2.62-1.804l1.45-.672c.201.353.354.576.46.672.206.191.453.287.74.287.573,0,.86-.262.86-.785,0-.302-.222-.584-.664-.846-.172-.086-.343-.169-.514-.249s-.345-.163-.521-.249c-.493-.241-.841-.483-1.042-.725-.257-.307-.385-.702-.385-1.186,0-.639.219-1.167.656-1.585.448-.418.991-.627,1.631-.627.94,0,1.641.486,2.099,1.457Z"/>
      <path class="cls-4" d="m170.921,33.692l-3.307-5.986h1.971l2.249,4.228,2.099-4.228h1.917l-5.857,11.354h-1.94l2.869-5.367Z"/>
      <path class="cls-4" d="m185.554,30.091l3.608,4.967h-2.151l-3.329-4.771h-.317v4.771h-1.759v-11.655h2.061c1.54,0,2.652.289,3.337.868.755.645,1.132,1.494,1.132,2.552,0,.825-.236,1.534-.709,2.128-.474.595-1.098.975-1.872,1.141Zm-2.189-1.337h.559c1.666,0,2.499-.636,2.499-1.909,0-1.193-.811-1.789-2.431-1.789h-.627v3.698Z"/>
      <path class="cls-4" d="m196.789,31.782h-5.269c.045.604.241,1.085.589,1.442.347.352.792.528,1.336.528.423,0,.772-.101,1.049-.302.272-.202.581-.574.929-1.118l1.435.801c-.222.377-.456.701-.702.97-.247.27-.511.491-.793.664-.281.174-.586.301-.913.382-.327.08-.683.12-1.064.12-1.098,0-1.978-.352-2.643-1.057-.664-.709-.996-1.65-.996-2.823,0-1.162.322-2.104.967-2.823.648-.709,1.51-1.064,2.581-1.064,1.082,0,1.938.345,2.566,1.034.624.685.937,1.634.937,2.847l-.008.399Zm-1.743-1.389c-.237-.906-.809-1.359-1.714-1.359-.207,0-.4.032-.581.095-.182.063-.347.153-.495.271-.148.119-.275.261-.381.427s-.187.354-.241.566h3.412Z"/>
      <path class="cls-4" d="m202.672,28.959l-1.404.747c-.222-.452-.496-.679-.823-.679-.155,0-.289.052-.399.154-.111.104-.166.235-.166.396,0,.282.327.562.981.838.9.388,1.507.745,1.819,1.072.312.327.468.768.468,1.32,0,.71-.262,1.304-.785,1.782-.509.453-1.122.679-1.842.679-1.233,0-2.106-.601-2.62-1.804l1.45-.672c.201.353.354.576.46.672.206.191.453.287.74.287.573,0,.86-.262.86-.785,0-.302-.222-.584-.664-.846-.172-.086-.343-.169-.514-.249s-.345-.163-.521-.249c-.493-.241-.841-.483-1.042-.725-.257-.307-.385-.702-.385-1.186,0-.639.219-1.167.656-1.585.448-.418.991-.627,1.631-.627.94,0,1.641.486,2.099,1.457Z"/>
      <path class="cls-4" d="m211.105,31.782h-5.269c.045.604.241,1.085.589,1.442.347.352.792.528,1.336.528.423,0,.772-.101,1.049-.302.272-.202.581-.574.929-1.118l1.435.801c-.222.377-.456.701-.702.97-.247.27-.511.491-.793.664-.281.174-.586.301-.913.382-.327.08-.683.12-1.064.12-1.098,0-1.978-.352-2.643-1.057-.664-.709-.996-1.65-.996-2.823,0-1.162.322-2.104.967-2.823.648-.709,1.51-1.064,2.581-1.064,1.082,0,1.938.345,2.566,1.034.624.685.937,1.634.937,2.847l-.008.399Zm-1.743-1.389c-.237-.906-.809-1.359-1.714-1.359-.207,0-.4.032-.581.095-.182.063-.347.153-.495.271-.148.119-.275.261-.381.427s-.187.354-.241.566h3.412Z"/>
      <path class="cls-4" d="m218.135,27.706h1.706v7.353h-1.706v-.77c-.7.654-1.452.98-2.257.98-1.017,0-1.857-.367-2.521-1.102-.659-.75-.989-1.686-.989-2.809,0-1.102.33-2.021.989-2.755s1.484-1.103,2.476-1.103c.855,0,1.623.353,2.303,1.057v-.853Zm-4.031,3.653c0,.705.188,1.278.566,1.722.387.447.875.672,1.464.672.629,0,1.138-.217,1.525-.649.388-.448.581-1.017.581-1.706s-.193-1.258-.581-1.706c-.388-.438-.891-.657-1.51-.657-.584,0-1.072.222-1.465.665-.388.447-.581,1.001-.581,1.66Z"/>
      <path class="cls-4" d="m221.738,27.706h1.698v.657c.312-.327.589-.552.83-.672.247-.126.539-.189.876-.189.447,0,.916.146,1.404.438l-.778,1.555c-.321-.231-.637-.348-.943-.348-.926,0-1.389.7-1.389,2.099v3.812h-1.698v-7.353Z"/>
      <path class="cls-4" d="m232.856,28.023v2.257c-.388-.473-.734-.798-1.042-.974-.302-.182-.656-.272-1.064-.272-.639,0-1.17.225-1.593.672-.423.448-.634,1.01-.634,1.684,0,.689.204,1.256.611,1.698.413.443.938.665,1.578.665.407,0,.767-.088,1.079-.265.302-.171.657-.503,1.064-.996v2.242c-.689.356-1.379.535-2.068.535-1.138,0-2.089-.367-2.854-1.102-.765-.74-1.147-1.658-1.147-2.756s.388-2.022,1.162-2.777c.775-.755,1.727-1.133,2.854-1.133.726,0,1.409.174,2.054.521Z"/>
      <path class="cls-4" d="m234.641,22.308h1.698v6.009c.604-.543,1.271-.815,2-.815.831,0,1.495.27,1.993.808.423.469.634,1.216.634,2.242v4.507h-1.698v-4.348c0-.589-.104-1.016-.313-1.28-.209-.264-.545-.396-1.008-.396-.594,0-1.011.185-1.253.552-.236.372-.354,1.012-.354,1.917v3.556h-1.698v-12.75Z"/>
      <path class="cls-4" d="m254.565,32.227h-4.989l-1.299,2.831h-1.895l5.768-12.388,5.563,12.388h-1.926l-1.223-2.831Zm-.717-1.653l-1.729-3.963-1.812,3.963h3.541Z"/>
      <path class="cls-4" d="m262.855,28.959l-1.404.747c-.222-.452-.496-.679-.823-.679-.155,0-.289.052-.399.154-.111.104-.166.235-.166.396,0,.282.327.562.981.838.9.388,1.507.745,1.819,1.072.312.327.468.768.468,1.32,0,.71-.262,1.304-.785,1.782-.509.453-1.122.679-1.842.679-1.233,0-2.106-.601-2.62-1.804l1.45-.672c.201.353.354.576.46.672.206.191.453.287.74.287.573,0,.86-.262.86-.785,0-.302-.222-.584-.664-.846-.172-.086-.343-.169-.514-.249s-.345-.163-.521-.249c-.493-.241-.841-.483-1.042-.725-.257-.307-.385-.702-.385-1.186,0-.639.219-1.167.656-1.585.448-.418.991-.627,1.631-.627.94,0,1.641.486,2.099,1.457Z"/>
      <path class="cls-4" d="m268.865,28.959l-1.404.747c-.222-.452-.496-.679-.823-.679-.155,0-.289.052-.399.154-.111.104-.166.235-.166.396,0,.282.327.562.981.838.9.388,1.507.745,1.819,1.072.312.327.468.768.468,1.32,0,.71-.262,1.304-.785,1.782-.509.453-1.122.679-1.842.679-1.233,0-2.106-.601-2.62-1.804l1.45-.672c.201.353.354.576.46.672.206.191.453.287.74.287.573,0,.86-.262.86-.785,0-.302-.222-.584-.664-.846-.172-.086-.343-.169-.514-.249s-.345-.163-.521-.249c-.493-.241-.841-.483-1.042-.725-.257-.307-.385-.702-.385-1.186,0-.639.219-1.167.656-1.585.448-.418.991-.627,1.631-.627.94,0,1.641.486,2.099,1.457Z"/>
      <path class="cls-4" d="m270.255,31.329c0-1.062.38-1.965,1.14-2.71.76-.744,1.687-1.117,2.778-1.117s2.028.375,2.793,1.125c.755.75,1.133,1.671,1.133,2.763,0,1.103-.381,2.026-1.141,2.771-.765.74-1.703,1.109-2.815,1.109-1.103,0-2.025-.377-2.771-1.132-.745-.745-1.117-1.681-1.117-2.809Zm1.736.03c0,.735.196,1.316.589,1.744.402.433.934.649,1.593.649.664,0,1.195-.214,1.593-.642s.597-.999.597-1.714-.199-1.286-.597-1.714c-.402-.433-.934-.649-1.593-.649-.649,0-1.175.217-1.578.649-.402.434-.604.992-.604,1.676Z"/>
      <path class="cls-4" d="m285.37,28.023v2.257c-.388-.473-.734-.798-1.042-.974-.302-.182-.656-.272-1.064-.272-.639,0-1.17.225-1.593.672-.423.448-.634,1.01-.634,1.684,0,.689.204,1.256.611,1.698.413.443.938.665,1.578.665.407,0,.767-.088,1.079-.265.302-.171.657-.503,1.064-.996v2.242c-.689.356-1.379.535-2.068.535-1.138,0-2.089-.367-2.854-1.102-.765-.74-1.147-1.658-1.147-2.756s.388-2.022,1.162-2.777c.775-.755,1.727-1.133,2.854-1.133.726,0,1.409.174,2.054.521Z"/>
      <path class="cls-4" d="m286.512,24.648c0-.297.108-.553.324-.77.217-.217.476-.324.777-.324.308,0,.569.107.785.324.217.211.325.471.325.777s-.108.568-.325.785c-.211.217-.471.324-.777.324s-.568-.107-.785-.324c-.216-.217-.324-.48-.324-.793Zm1.955,3.058v7.353h-1.698v-7.353h1.698Z"/>
      <path class="cls-4" d="m295.791,27.706h1.706v7.353h-1.706v-.77c-.7.654-1.452.98-2.257.98-1.017,0-1.857-.367-2.521-1.102-.659-.75-.989-1.686-.989-2.809,0-1.102.33-2.021.989-2.755s1.484-1.103,2.476-1.103c.855,0,1.623.353,2.303,1.057v-.853Zm-4.031,3.653c0,.705.188,1.278.566,1.722.387.447.875.672,1.464.672.629,0,1.138-.217,1.525-.649.388-.448.581-1.017.581-1.706s-.193-1.258-.581-1.706c-.388-.438-.891-.657-1.51-.657-.584,0-1.072.222-1.465.665-.388.447-.581,1.001-.581,1.66Z"/>
      <path class="cls-4" d="m301.145,29.291v5.768h-1.698v-5.768h-.725v-1.585h.725v-2.695h1.698v2.695h1.321v1.585h-1.321Z"/>
      <path class="cls-4" d="m310.208,31.782h-5.269c.045.604.241,1.085.589,1.442.347.352.792.528,1.336.528.423,0,.772-.101,1.049-.302.272-.202.581-.574.929-1.118l1.435.801c-.222.377-.456.701-.702.97-.247.27-.511.491-.793.664-.281.174-.586.301-.913.382-.327.08-.683.12-1.064.12-1.098,0-1.978-.352-2.643-1.057-.664-.709-.996-1.65-.996-2.823,0-1.162.322-2.104.967-2.823.648-.709,1.51-1.064,2.581-1.064,1.082,0,1.938.345,2.566,1.034.624.685.937,1.634.937,2.847l-.008.399Zm-1.743-1.389c-.237-.906-.809-1.359-1.714-1.359-.207,0-.4.032-.581.095-.182.063-.347.153-.495.271-.148.119-.275.261-.381.427s-.187.354-.241.566h3.412Z"/>
      <path class="cls-4" d="m316.091,28.959l-1.404.747c-.222-.452-.496-.679-.823-.679-.155,0-.289.052-.399.154-.111.104-.166.235-.166.396,0,.282.327.562.981.838.9.388,1.507.745,1.819,1.072.312.327.468.768.468,1.32,0,.71-.262,1.304-.785,1.782-.509.453-1.122.679-1.842.679-1.233,0-2.106-.601-2.62-1.804l1.45-.672c.201.353.354.576.46.672.206.191.453.287.74.287.573,0,.86-.262.86-.785,0-.302-.222-.584-.664-.846-.172-.086-.343-.169-.514-.249s-.345-.163-.521-.249c-.493-.241-.841-.483-1.042-.725-.257-.307-.385-.702-.385-1.186,0-.639.219-1.167.656-1.585.448-.418.991-.627,1.631-.627.94,0,1.641.486,2.099,1.457Z"/>
      <path class="cls-4" d="m324.435,23.403v10.002h3.428v1.653h-5.187v-11.655h1.759Z"/>
      <path class="cls-4" d="m331.042,23.403v10.002h3.428v1.653h-5.187v-11.655h1.759Z"/>
      <path class="cls-4" d="m343.993,24.03v2.083c-1.017-.851-2.068-1.275-3.155-1.275-1.198,0-2.207.43-3.027,1.29-.825.856-1.238,1.902-1.238,3.141,0,1.223.413,2.255,1.238,3.095.825.841,1.837,1.261,3.035,1.261.618,0,1.145-.101,1.577-.302.241-.101.492-.236.751-.407.26-.171.532-.378.819-.619v2.121c-1.007.568-2.063.853-3.171.853-1.665,0-3.087-.581-4.265-1.743-1.173-1.173-1.759-2.587-1.759-4.242,0-1.485.49-2.809,1.472-3.971,1.208-1.425,2.771-2.137,4.688-2.137,1.047,0,2.059.284,3.035.854Z"/>
    </g>
  </g>
  <g>
    <g class="cls-12">
      <rect class="cls-35" x="-1.319" y="-1.319" width="18.188" height="18.188"/>
    </g>
    <circle class="cls-2" cx="7.775" cy="7.775" r="7.275"/>
  </g>
  <g>
    <g class="cls-15">
      <rect class="cls-11" x="-1.319" y="16.869" width="18.188" height="18.188"/>
    </g>
    <circle class="cls-2" cx="7.775" cy="25.963" r="7.275"/>
  </g>
  <g class="cls-14">
    <rect class="cls-10" x="15.051" y="16.869" width="18.188" height="18.188"/>
  </g>
  <g class="cls-13">
    <rect class="cls-9" x="33.239" y="16.869" width="18.188" height="18.188"/>
  </g>
  <g class="cls-19">
    <rect class="cls-9" x="51.427" y="16.869" width="18.188" height="18.188"/>
  </g>
  <g>
    <g class="cls-18">
      <rect class="cls-33" x="67.796" y="16.869" width="18.188" height="18.188"/>
    </g>
    <circle class="cls-2" cx="76.89" cy="25.963" r="7.275"/>
  </g>
  <g>
    <g class="cls-16">
      <rect class="cls-33" x="84.166" y="16.869" width="18.188" height="18.188"/>
    </g>
    <circle class="cls-2" cx="93.26" cy="25.963" r="7.275"/>
  </g>
  <g>
    <g class="cls-17">
      <rect class="cls-6" x="-1.319" y="35.058" width="18.188" height="18.188"/>
    </g>
    <circle class="cls-2" cx="7.775" cy="44.152" r="7.275"/>
  </g>
  <g class="cls-20">
    <rect class="cls-5" x="15.051" y="35.058" width="18.188" height="18.188"/>
  </g>
  <g class="cls-24">
    <rect class="cls-7" x="33.239" y="35.058" width="18.188" height="18.188"/>
  </g>
  <g class="cls-28">
    <rect class="cls-7" x="51.427" y="35.058" width="18.188" height="18.188"/>
  </g>
  <g class="cls-23">
    <rect class="cls-8" x="67.796" y="35.058" width="18.188" height="18.188"/>
  </g>
  <g class="cls-22">
    <rect class="cls-8" x="84.166" y="35.058" width="18.188" height="18.188"/>
  </g>
  <g>
    <g class="cls-21">
      <rect class="cls-30" x="15.051" y="-1.319" width="18.188" height="18.188"/>
    </g>
    <circle class="cls-2" cx="24.145" cy="7.775" r="7.275"/>
  </g>
  <g>
    <g class="cls-25">
      <rect class="cls-36" x="33.239" y="-1.319" width="18.188" height="18.188"/>
    </g>
    <circle class="cls-2" cx="42.333" cy="7.775" r="7.275"/>
  </g>
  <g>
    <g class="cls-27">
      <rect class="cls-34" x="51.427" y="-1.319" width="18.188" height="18.188"/>
    </g>
    <circle class="cls-2" cx="60.521" cy="7.775" r="7.275"/>
  </g>
  <g>
    <g class="cls-26">
      <rect class="cls-32" x="67.796" y="-1.319" width="18.188" height="18.188"/>
    </g>
    <circle class="cls-2" cx="76.89" cy="7.775" r="7.275"/>
  </g>
  <g>
    <g class="cls-29">
      <rect class="cls-31" x="84.166" y="-1.319" width="18.188" height="18.188"/>
    </g>
    <circle class="cls-2" cx="93.26" cy="7.775" r="7.275"/>
  </g>
</svg>